<svg width="15" height="12" viewBox="0 0 15 12" fill="none" xmlns="http://www.w3.org/2000/svg">
<path opacity="0.2" d="M13.9758 3.875C13.9758 8 7.24671 11.5 7.24671 11.5C7.24671 11.5 0.517639 8 0.517639 3.875C0.517639 2.97989 0.88575 2.12145 1.54099 1.48851C2.19623 0.855579 3.08493 0.5 4.01158 0.5C5.47321 0.5 6.72521 1.26937 7.24671 2.5C7.76822 1.26937 9.02021 0.5 10.4818 0.5C11.4085 0.5 12.2972 0.855579 12.9524 1.48851C13.6077 2.12145 13.9758 2.97989 13.9758 3.875Z" fill="#FFE9E9"/>
<path d="M10.4818 0C9.14572 0 7.97589 0.555 7.2467 1.49312C6.5175 0.555 5.34767 0 4.01156 0C2.948 0.00115796 1.92834 0.409788 1.17628 1.13624C0.42423 1.86269 0.00119877 2.84764 0 3.875C0 8.25 6.71549 11.7913 7.00147 11.9375C7.07685 11.9767 7.16111 11.9972 7.2467 11.9972C7.33229 11.9972 7.41654 11.9767 7.49192 11.9375C7.7779 11.7913 14.4934 8.25 14.4934 3.875C14.4922 2.84764 14.0692 1.86269 13.3171 1.13624C12.5651 0.409788 11.5454 0.00115796 10.4818 0ZM7.2467 10.925C6.06523 10.26 1.03524 7.23063 1.03524 3.875C1.03627 3.11281 1.35018 2.38212 1.90812 1.84316C2.46607 1.30421 3.22251 1.00099 4.01156 1C5.27003 1 6.32662 1.6475 6.7679 2.6875C6.80689 2.77921 6.87324 2.85764 6.95849 2.91284C7.04374 2.96804 7.14406 2.99752 7.2467 2.99752C7.34933 2.99752 7.44965 2.96804 7.5349 2.91284C7.62016 2.85764 7.6865 2.77921 7.7255 2.6875C8.16677 1.64562 9.22336 1 10.4818 1C11.2709 1.00099 12.0273 1.30421 12.5853 1.84316C13.1432 2.38212 13.4571 3.11281 13.4581 3.875C13.4581 7.22563 8.42687 10.2594 7.2467 10.925Z" fill="#3F3F3F"/>
</svg>
