<svg width="28" height="28" viewBox="0 0 28 28" fill="none" xmlns="http://www.w3.org/2000/svg">
<path d="M9.09998 2.33337H18.9C22.6333 2.33337 25.6666 5.36671 25.6666 9.10004V18.9C25.6666 20.6947 24.9537 22.4158 23.6847 23.6848C22.4157 24.9538 20.6946 25.6667 18.9 25.6667H9.09998C5.36665 25.6667 2.33331 22.6334 2.33331 18.9V9.10004C2.33331 7.30541 3.04623 5.58428 4.31522 4.31529C5.58422 3.04629 7.30535 2.33337 9.09998 2.33337ZM8.86665 4.66671C7.75274 4.66671 6.68445 5.10921 5.8968 5.89686C5.10915 6.68451 4.66665 7.7528 4.66665 8.86671V19.1334C4.66665 21.455 6.54498 23.3334 8.86665 23.3334H19.1333C20.2472 23.3334 21.3155 22.8909 22.1032 22.1032C22.8908 21.3156 23.3333 20.2473 23.3333 19.1334V8.86671C23.3333 6.54504 21.455 4.66671 19.1333 4.66671H8.86665ZM20.125 6.41671C20.5118 6.41671 20.8827 6.57035 21.1562 6.84384C21.4297 7.11733 21.5833 7.48827 21.5833 7.87504C21.5833 8.26182 21.4297 8.63275 21.1562 8.90624C20.8827 9.17973 20.5118 9.33337 20.125 9.33337C19.7382 9.33337 19.3673 9.17973 19.0938 8.90624C18.8203 8.63275 18.6666 8.26182 18.6666 7.87504C18.6666 7.48827 18.8203 7.11733 19.0938 6.84384C19.3673 6.57035 19.7382 6.41671 20.125 6.41671ZM14 8.16671C15.5471 8.16671 17.0308 8.78129 18.1248 9.87525C19.2187 10.9692 19.8333 12.4529 19.8333 14C19.8333 15.5471 19.2187 17.0309 18.1248 18.1248C17.0308 19.2188 15.5471 19.8334 14 19.8334C12.4529 19.8334 10.9692 19.2188 9.87519 18.1248C8.78123 17.0309 8.16665 15.5471 8.16665 14C8.16665 12.4529 8.78123 10.9692 9.87519 9.87525C10.9692 8.78129 12.4529 8.16671 14 8.16671ZM14 10.5C13.0717 10.5 12.1815 10.8688 11.5251 11.5252C10.8687 12.1815 10.5 13.0718 10.5 14C10.5 14.9283 10.8687 15.8185 11.5251 16.4749C12.1815 17.1313 13.0717 17.5 14 17.5C14.9282 17.5 15.8185 17.1313 16.4749 16.4749C17.1312 15.8185 17.5 14.9283 17.5 14C17.5 13.0718 17.1312 12.1815 16.4749 11.5252C15.8185 10.8688 14.9282 10.5 14 10.5Z" fill="black"/>
</svg>
