<svg width="32" height="32" viewBox="0 0 32 32" fill="none" xmlns="http://www.w3.org/2000/svg">
<path d="M13.3334 20L20.2534 16L13.3334 12V20ZM28.7467 9.55996C28.92 10.1866 29.04 11.0266 29.12 12.0933C29.2134 13.16 29.2534 14.08 29.2534 14.88L29.3334 16C29.3334 18.92 29.12 21.0666 28.7467 22.44C28.4134 23.64 27.64 24.4133 26.44 24.7466C25.8134 24.92 24.6667 25.04 22.9067 25.12C21.1734 25.2133 19.5867 25.2533 18.12 25.2533L16 25.3333C10.4134 25.3333 6.93335 25.12 5.56002 24.7466C4.36002 24.4133 3.58669 23.64 3.25335 22.44C3.08002 21.8133 2.96002 20.9733 2.88002 19.9066C2.78669 18.84 2.74669 17.92 2.74669 17.12L2.66669 16C2.66669 13.08 2.88002 10.9333 3.25335 9.55996C3.58669 8.35996 4.36002 7.58663 5.56002 7.25329C6.18669 7.07996 7.33335 6.95996 9.09336 6.87996C10.8267 6.78663 12.4134 6.74663 13.88 6.74663L16 6.66663C21.5867 6.66663 25.0667 6.87996 26.44 7.25329C27.64 7.58663 28.4134 8.35996 28.7467 9.55996Z" fill="black"/>
</svg>
